:SAMPLES-PER-SECOND 30
:FULLY-SPECIFIED
:DEGREES
530
root  -24.8041 34.4456 -2.68797 -159.983 41.16 -178.534
RightUpLeg  -31.6786 -11.5592 5.65704
RightLeg  14.1911 7.94254 1.46945
RightFoot  8.27024 -0.0644292 1.37641
RightToes  -16.3059 -0.0614121 -0.145547
Spine  4.80248 2.37463 -1.17513
Spine1  9.17562 5.59862 -2.46741
HEad  -54.5954 -16.2312 -3.54153
LeftShoulder1  -1.94126e-019 -3.10601e-018 -2.51263e-017
LeftArm  -9.4435 14.1824 -81.8657
LeftForeArm  18.8427 -28.1863 -5.02812
LeftHand  -0.396691 1.04928 10.5822
RightShoulder  -4.96962e-017 0 -2.36833e-017
RightArm  -9.15819 -2.57277 81.5112
RightForeArm  56.4678 74.6395 35.5868
RightHand  -0.102117 -3.95671 -6.93558
LeftUpLeg  -34.3314 -8.00306 4.79951
LeftLeg  20.7642 10.0002 3.05163
LeftFoot  6.32637 -0.0699598 1.42741
LeftToes  -15.0912 1.34695e-006 1.12385e-007
531
root  -24.5164 34.4699 -2.98366 -162.003 42.4417 -178.472
RightUpLeg  -29.3618 -10.5216 4.86654
RightLeg  15.0875 7.88927 1.58697
RightFoot  7.36268 -0.0486317 1.24047
RightToes  -16.1439 -0.0610218 -0.145118
Spine  4.65016 2.20686 -1.62321
Spine1  8.8131 5.26014 -3.31422
HEad  -54.3214 -16.3729 -4.07095
LeftShoulder1  -1.94126e-019 -3.10601e-018 -2.51263e-017
LeftArm  -9.87946 14.4674 -80.9875
LeftForeArm  18.6413 -27.3454 -4.84943
LeftHand  -0.391071 1.12029 10.5975
RightShoulder  -4.96962e-017 0 -2.36833e-017
RightArm  -7.94894 -2.86489 81.9415
RightForeArm  55.4005 75.0092 37.2838
RightHand  0.0286404 -6.77645 -5.00691
LeftUpLeg  -31.4481 -7.45816 4.28724
LeftLeg  21.0587 10.5176 3.26633
LeftFoot  5.31036 -0.0522392 1.28797
LeftToes  -15.2414 1.34695e-006 1.12385e-007
532
root  -24.2196 34.4796 -3.29625 -163.783 43.535 -178.352
RightUpLeg  -26.9844 -9.61096 4.2441
RightLeg  15.5023 7.90311 1.64901
RightFoot  6.58282 -0.0372023 1.11939
RightToes  -16.9843 -0.0652934 -0.152144
Spine  4.26087 2.2805 -2.02309
Spine1  8.03536 5.31863 -3.94527
HEad  -53.9354 -17.5163 -3.65914
LeftShoulder1  -1.94126e-019 -3.10601e-018 -2.51263e-017
LeftArm  -9.23762 14.2225 -80.3534
LeftForeArm  19.9235 -25.6892 -4.45012
LeftHand  -0.391429 1.15032 10.6796
RightShoulder  -4.96962e-017 0 -2.36833e-017
RightArm  -3.72673 -4.16171 81.5375
RightForeArm  45.1069 70.0716 26.4854
RightHand  0.0305865 -6.0867 -9.02897
LeftUpLeg  -28.8595 -6.72021 3.80365
LeftLeg  21.533 10.7641 3.43898
LeftFoot  4.10195 -0.0321493 1.05927
LeftToes  -15.3983 1.34695e-006 1.12385e-007
533
root  -23.9373 34.484 -3.58808 -165.147 44.143 -178.157
RightUpLeg  -24.8237 -9.49302 3.98714
RightLeg  15.5316 8.27353 1.73019
RightFoot  5.8571 -0.0287372 1.03531
RightToes  -18.0174 -0.0706845 -0.160693
Spine  3.68037 2.34006 -2.17597
Spine1  6.95005 5.28122 -4.03789
HEad  -53.6664 -19.0527 -3.0969
LeftShoulder1  -1.94126e-019 -3.10601e-018 -2.51263e-017
LeftArm  -8.68231 14.1188 -80.3509
LeftForeArm  22.0772 -24.0202 -4.07867
LeftHand  -0.409416 0.931065 10.6461
RightShoulder  -4.96962e-017 0 -2.36833e-017
RightArm  1.51006 -4.66912 81.8004
RightForeArm  43.1536 59.9075 15.2868
RightHand  -0.286961 -3.40331 -16.2314
LeftUpLeg  -26.8259 -5.91728 3.47456
LeftLeg  22.1049 10.5447 3.4852
LeftFoot  2.92458 -0.0161576 0.794503
LeftToes  -15.4145 1.34695e-006 1.12385e-007
534
root  -23.6536 34.4854 -3.85008 -166.085 44.5271 -177.652
RightUpLeg  -22.8711 -9.25335 3.98324
RightLeg  15.5461 8.38737 1.75603
RightFoot  5.21931 -0.0197534 0.938719
RightToes  -18.8112 -0.0749312 -0.167196
Spine  3.09724 2.4362 -2.18065
Spine1  5.84831 5.36069 -3.91515
HEad  -53.4164 -20.5867 -2.44674
LeftShoulder1  -1.94126e-019 -3.10601e-018 -2.51263e-017
LeftArm  -8.71657 14.2345 -80.5723
LeftForeArm  23.9528 -23.5412 -3.99255
LeftHand  -0.416861 0.762757 10.4622
RightShoulder  -4.96962e-017 0 -2.36833e-017
RightArm  4.51215 -4.36543 83.3152
RightForeArm  49.3252 48.7726 9.07848
RightHand  -0.81237 -1.60609 -24.656
LeftUpLeg  -25.1398 -5.11987 3.49196
LeftLeg  22.7896 10.1501 3.49034
LeftFoot  1.74722 -0.00574736 0.538474
LeftToes  -15.063 1.34695e-006 1.12385e-007
535
root  -23.3934 34.487 -4.12418 -167.173 44.8681 -177.019
RightUpLeg  -20.6371 -8.60567 3.92474
RightLeg  15.4419 8.14187 1.68961
RightFoot  4.83568 -0.0121772 0.857352
RightToes  -19.3235 -0.0777194 -0.17136
Spine  2.78604 2.59115 -2.0434
Spine1  5.26181 5.62203 -3.58729
HEad  -54.247 -22.2317 -1.31474
LeftShoulder1  -1.94126e-019 -3.10601e-018 -2.51263e-017
LeftArm  -8.64143 14.3544 -80.9735
LeftForeArm  24.55 -24.1485 -4.10258
LeftHand  -0.417611 0.662366 10.2678
RightShoulder  -4.96962e-017 0 -2.36833e-017
RightArm  5.97038 -6.30837 83.0006
RightForeArm  45.0471 49.3225 9.58075
RightHand  -0.572011 -2.80755 -25.3337
LeftUpLeg  -23.1296 -4.83911 3.6566
LeftLeg  23.2488 10.2165 3.60396
LeftFoot  0.752242 -0.00121502 0.346678
LeftToes  -14.7548 1.34695e-006 1.12385e-007
536
root  -23.2239 34.5137 -4.38297 -167.884 44.8735 -176.815
RightUpLeg  -18.9903 -7.65436 3.61869
RightLeg  14.9373 7.21602 1.43267
RightFoot  4.65711 -0.00327866 0.752448
RightToes  -19.5518 -0.079695 -0.174333
Spine  2.22834 2.51282 -1.99556
Spine1  4.18539 5.40525 -3.43942
HEad  -55.2354 -23.7838 -0.189563
LeftShoulder1  -1.94126e-019 -3.10601e-018 -2.51263e-017
LeftArm  -8.30137 15.3831 -81.0778
LeftForeArm  24.3234 -25.4738 -4.29537
LeftHand  -0.407672 0.645136 9.98768
RightShoulder  -4.96962e-017 0 -2.36833e-017
RightArm  4.37426 -10.6295 81.6406
RightForeArm  42.4843 61.4637 16.5655
RightHand  -0.0919183 -4.91162 -19.9018
LeftUpLeg  -21.6012 -4.93086 3.56316
LeftLeg  22.9358 10.3483 3.58697
LeftFoot  0.27718 -0.000217311 0.251517
LeftToes  -14.3846 1.34695e-006 1.12385e-007
537
root  -23.0472 34.578 -4.65436 -168.93 44.5347 -176.626
RightUpLeg  -16.5396 -7.07677 3.36013
RightLeg  13.5356 6.27666 1.08877
RightFoot  4.857 0.00194047 0.695679
RightToes  -19.628 -0.0812663 -0.176818
Spine  1.76264 1.99262 -1.95117
Spine1  3.2749 4.33824 -3.34884
HEad  -55.472 -24.0725 0.352214
LeftShoulder1  -1.94126e-019 -3.10601e-018 -2.51263e-017
LeftArm  -8.33572 16.9135 -80.86
LeftForeArm  24.1853 -26.4249 -4.41289
LeftHand  -0.401409 0.713193 9.97023
RightShoulder  -4.96962e-017 0 -2.36833e-017
RightArm  0.65483 -12.859 81.4179
RightForeArm  45.0662 72.2999 31.4409
RightHand  0.307512 -9.11462 -10.5791
LeftUpLeg  -19.4788 -5.24959 3.46244
LeftLeg  22.0139 10.4058 3.42168
LeftFoot  0.045537 -1.64039e-005 0.203627
LeftToes  -14.0897 1.34695e-006 1.12385e-007
538
root  -22.9312 34.6374 -4.8848 -169.76 44.5563 -176.616
RightUpLeg  -14.5899 -6.45836 3.03539
RightLeg  12.1625 5.64793 0.841732
RightFoot  5.15242 0.00479122 0.66855
RightToes  -20.3301 -0.0830279 -0.179471
Spine  1.21307 1.52874 -1.79521
Spine1  2.20692 3.37711 -3.02396
HEad  -55.7982 -23.9243 0.524483
LeftShoulder1  -1.94126e-019 -3.10601e-018 -2.51263e-017
LeftArm  -7.12979 17.985 -80.9104
LeftForeArm  23.9718 -25.7761 -4.28203
LeftHand  -0.412835 0.69384 10.215
RightShoulder  -4.96962e-017 0 -2.36833e-017
RightArm  -2.66317 -13.1896 81.8806
RightForeArm  54.735 77.2438 50.3367
RightHand  0.378721 -14.4924 -5.62332
LeftUpLeg  -17.7154 -5.62304 3.24239
LeftLeg  21.0508 10.9057 3.38363
LeftFoot  -0.0723669 0.000767141 0.17718
LeftToes  -14.6054 1.34695e-006 1.12385e-007
539
root  -22.863 34.677 -5.1165 -171.011 45.3717 -177.034
RightUpLeg  -12.9445 -5.73535 2.35398
RightLeg  11.4051 5.60522 0.760052
RightFoot  5.10061 0.0063574 0.65581
RightToes  -20.7315 -0.0855741 -0.182678
Spine  0.815548 1.52958 -1.73815
Spine1  1.42883 3.35036 -2.88671
HEad  -57.1381 -24.1244 1.0229
LeftShoulder1  -1.94126e-019 -3.10601e-018 -2.51263e-017
LeftArm  -4.82013 18.0137 -81.0313
LeftForeArm  24.1043 -24.2676 -4.051
LeftHand  -0.40337 0.634443 9.86065
RightShoulder  -4.96962e-017 0 -2.36833e-017
RightArm  -3.24443 -12.8564 82.017
RightForeArm  50.1403 76.2548 45.357
RightHand  0.0254952 -15.5369 -1.2239
LeftUpLeg  -15.7381 -5.46495 2.56163
LeftLeg  20.0464 11.5834 3.37153
LeftFoot  -0.125307 1.05503e-006 0.162228
LeftToes  -14.8826 1.34695e-006 1.12385e-007
540
root  -22.8525 34.6838 -5.25598 -171.151 46.651 -176.965
RightUpLeg  -12.3996 -4.39461 2.1176
RightLeg  10.844 5.42236 0.681501
RightFoot  5.19051 0.00776131 0.641656
RightToes  -21.4839 -0.0898842 -0.188644
Spine  0.284022 1.81798 -1.61498
Spine1  0.405673 3.86298 -2.58903
HEad  -59.238 -24.2999 2.04767
LeftShoulder1  -1.94126e-019 -3.10601e-018 -2.51263e-017
LeftArm  -3.96328 17.863 -81.4898
LeftForeArm  26.0698 -22.8571 -3.854
LeftHand  -0.387713 0.228864 8.768
RightShoulder  -4.96962e-017 0 -2.36833e-017
RightArm  2.21403 -13.4432 81.0026
RightForeArm  36.7282 69.521 27.0994
RightHand  0.194224 -10.7979 -5.21364
LeftUpLeg  -14.9919 -4.29671 2.29294
LeftLeg  19.7278 11.7578 3.3514
LeftFoot  -0.508761 -0.000391872 0.0732163
LeftToes  -14.9516 1.34695e-006 1.12385e-007
